<svg xmlns="http://www.w3.org/2000/svg" viewBox="0 0 28 24" fill="currentColor">
  <path d="m 4.635,2.898 c 0,0.208 9.193,8.776 9.679,9.026 0.265,0.125 0.486,0.292 0.486,0.347 0,0.056 -0.28,0.278 -0.619,0.514 -0.354,0.222 -2.681,2.347 -5.171,4.707 -4.346,4.11 -4.537,4.319 -4.493,4.763 l 0.044,0.472 12.051,0.042 12.036,0.028 v -0.555 c 0,-0.528 -0.103,-0.653 -4.67,-4.971 -2.578,-2.43 -4.876,-4.541 -5.112,-4.694 l -0.427,-0.278 0.722,-0.5 c 0.398,-0.278 2.696,-2.416 5.112,-4.749 l 4.405,-4.249 h -2.357 -2.357 l -2.961,2.874 c -1.635,1.597 -3.138,2.999 -3.374,3.124 -0.516,0.319 -1.458,0.319 -2.018,0 C 15.36,8.647 13.843,7.244 12.222,5.675 L 9.29,2.801 H 6.963 c -1.282,0 -2.328,0.042 -2.328,0.097 z M 17.57,15.771 c 0.619,0.319 4.803,4.333 4.685,4.513 -0.118,0.167 -11.152,0.222 -11.329,0.056 -0.118,-0.111 3.683,-3.777 4.523,-4.36 0.648,-0.458 1.458,-0.528 2.121,-0.209 z"/>
</svg>
