<?xml version="1.0" encoding="UTF-8" standalone="no"?>
<svg
   viewBox="0 0 110 26"
   fill="none"
   version="1.1"
   id="svg3"
   sodipodi:docname="XRPLedgerv1.svg"
   xml:space="preserve"
   inkscape:version="1.4.2 (f4327f4, 2025-05-13)"
   xmlns:inkscape="http://www.inkscape.org/namespaces/inkscape"
   xmlns:sodipodi="http://sodipodi.sourceforge.net/DTD/sodipodi-0.dtd"
   xmlns="http://www.w3.org/2000/svg"
   xmlns:svg="http://www.w3.org/2000/svg"><defs
     id="defs3" /><sodipodi:namedview
     id="namedview3"
     pagecolor="#ffffff"
     bordercolor="#000000"
     borderopacity="0.25"
     inkscape:showpageshadow="2"
     inkscape:pageopacity="0.0"
     inkscape:pagecheckerboard="0"
     inkscape:deskcolor="#d1d1d1"
     inkscape:zoom="11.313708"
     inkscape:cx="54.977552"
     inkscape:cy="-6.5849319"
     inkscape:window-width="2560"
     inkscape:window-height="1377"
     inkscape:window-x="-8"
     inkscape:window-y="-8"
     inkscape:window-maximized="1"
     inkscape:current-layer="svg3" /><text
     x="34.865734"
     y="15.482652"
     font-family="Arial, sans-serif"
     font-size="10.8454px"
     font-weight="600"
     fill="currentColor"
     id="text1"
     transform="scale(0.92154628,1.0851327)"
     style="stroke-width:1.14162">PFT LEDGER</text><path
     d="m 4.6350574,2.8980556 c 0,0.2082967 9.1928486,8.7761414 9.6790086,9.0260944 0.265178,0.124977 0.48616,0.291612 0.48616,0.347159 0,0.05555 -0.27991,0.277724 -0.618749,0.513792 -0.353571,0.22218 -2.681248,2.346785 -5.1709774,4.707457 -4.3459787,4.110344 -4.5374967,4.318638 -4.4933,4.763 l 0.044197,0.472135 12.0508814,0.04165 12.036149,0.02777 v -0.555452 c 0,-0.52768 -0.103125,-0.652656 -4.670084,-4.971295 -2.578123,-2.430103 -4.876335,-4.540819 -5.112049,-4.693568 l -0.427232,-0.277727 0.721874,-0.499907 c 0.397767,-0.277725 2.69598,-2.4162156 5.11205,-4.749114 l 4.404905,-4.2492068 h -2.35714 -2.35714 l -2.961158,2.8744623 c -1.635267,1.5969256 -3.137944,2.9994418 -3.373658,3.1244184 -0.515625,0.3193846 -1.458481,0.3193846 -2.018301,0 C 15.360047,8.6469826 13.842638,7.244466 12.222104,5.6753135 L 9.29041,2.8008512 H 6.9627337 c -1.281695,0 -2.3276763,0.041645 -2.3276763,0.097204 z M 17.569866,15.770657 c 0.61875,0.319384 4.802675,4.332525 4.684817,4.513046 -0.117856,0.166636 -11.152222,0.222181 -11.329007,0.05555 -0.117857,-0.111094 3.683033,-3.777072 4.522764,-4.360297 0.648213,-0.458248 1.45848,-0.52768 2.121426,-0.208294 z"
     id="path1"
     fill="currentColor"/></svg>
