<svg viewBox="0 0 110 26" fill="none" xmlns="http://www.w3.org/2000/svg">
<text x="38" y="14" font-family="Arial, sans-serif" font-size="9.5" font-weight="600" fill="currentColor">PFT LEDGER</text>
<path d="M7.86904 1.6138H8.49145V1.98722e-06H7.86904C7.20915 -0.000587627 6.55562 0.130033 5.94585 0.384391C5.33607 0.638748 4.78203 1.01185 4.31542 1.48234C3.8488 1.95284 3.47878 2.51149 3.22652 3.12633C2.97426 3.74117 2.84472 4.40014 2.8453 5.06552V8.74138C2.84664 9.5197 2.55266 10.2691 2.02362 10.8358C1.49458 11.4026 0.770569 11.7439 0 11.7897L0.0444578 12.5966L0 13.4034C0.770569 13.4492 1.49458 13.7905 2.02362 14.3573C2.55266 14.924 2.84664 15.6734 2.8453 16.4517V20.6879C2.84294 22.0936 3.39418 23.4428 4.37787 24.4388C5.36157 25.4349 6.69723 25.9964 8.09133 26V24.3862C7.12465 24.3856 6.19773 23.9981 5.51419 23.3089C4.83065 22.6197 4.44637 21.6851 4.44578 20.7103V16.4517C4.44646 15.6914 4.26244 14.9425 3.90982 14.2705C3.5572 13.5985 3.0467 13.0237 2.42295 12.5966C3.04492 12.1676 3.55407 11.5924 3.90648 10.9208C4.25888 10.2492 4.44397 9.50121 4.44578 8.74138V5.06552C4.44988 4.15134 4.81186 3.27577 5.45295 2.62934C6.09405 1.98291 6.9624 1.61792 7.86904 1.6138Z" fill="currentColor"/>
<path d="M26.3646 1.61379H25.7422V0H26.3646C27.6938 0.00356254 28.9673 0.539108 29.9051 1.48895C30.843 2.43879 31.3685 3.72521 31.3661 5.06552V8.74138C31.3648 9.5197 31.6587 10.2691 32.1878 10.8358C32.7168 11.4026 33.4408 11.7439 34.2114 11.7897L34.1669 12.5966L34.2114 13.4034C33.4408 13.4492 32.7168 13.7905 32.1878 14.3573C31.6587 14.924 31.3648 15.6734 31.3661 16.4517V20.6879C31.3685 22.0936 30.8172 23.4428 29.8335 24.4388C28.8498 25.4349 27.5142 25.9964 26.1201 26V24.3862C27.0868 24.3856 28.0137 23.9981 28.6972 23.3089C29.3808 22.6197 29.765 21.6851 29.7656 20.7103V16.4517C29.7649 15.6914 29.949 14.9425 30.3016 14.2705C30.6542 13.5985 31.1647 13.0237 31.7884 12.5966C31.1665 12.1676 30.6573 11.5924 30.3049 10.9208C29.9525 10.2492 29.7674 9.50121 29.7656 8.74138V5.06552C29.768 4.61346 29.6817 4.16538 29.5119 3.74699C29.3421 3.3286 29.092 2.94815 28.7761 2.62745C28.4601 2.30675 28.0844 2.05212 27.6706 1.87817C27.2567 1.70422 26.8129 1.61438 26.3646 1.61379Z" fill="currentColor"/>
<path fill-rule="evenodd" clip-rule="evenodd" d="M25.3822 6.16644H23.1244L19.5559 9.72497C18.4789 10.7989 16.7329 10.7989 15.656 9.72497L12.0875 6.16644H9.82973L14.5271 10.8507C16.2275 12.5464 18.9844 12.5464 20.6848 10.8507L25.3822 6.16644ZM9.7998 19.1925H12.0576L15.6551 15.605C16.732 14.5311 18.478 14.5311 19.555 15.605L23.1525 19.1925H25.4103L20.6839 14.4793C18.9835 12.7836 16.2266 12.7836 14.5262 14.4793L9.7998 19.1925Z" fill="currentColor"/>
</svg>